<svg width="140" height="49" viewBox="0 0 140 49" fill="none" xmlns="http://www.w3.org/2000/svg">
<ellipse cx="23.7546" cy="24.2297" rx="20.904" ry="20.4289" fill="white"/>
<path d="M47.1612 24.2296C47.1612 37.6113 36.6038 48.4592 23.5806 48.4592C10.5574 48.4592 0 37.6113 0 24.2296C0 10.848 10.5574 0 23.5806 0C36.6038 0 47.1612 10.848 47.1612 24.2296ZM6.347 24.2296C6.347 34.0094 14.0628 41.9376 23.5806 41.9376C33.0985 41.9376 40.8142 34.0094 40.8142 24.2296C40.8142 14.4498 33.0985 6.52169 23.5806 6.52169C14.0628 6.52169 6.347 14.4498 6.347 24.2296Z" fill="#1A3146"/>
<circle cx="35.046" cy="10.817" r="3.32672" fill="#1A3146" stroke="white" stroke-width="2"/>
<circle cx="12.9805" cy="10.817" r="3.32672" fill="#1A3146" stroke="white" stroke-width="2"/>
<circle cx="24.23" cy="41.9693" r="3.32672" fill="#1A3146" stroke="white" stroke-width="2"/>
<circle cx="39.8072" cy="28.5562" r="3.32672" fill="#1A3146" stroke="white" stroke-width="2"/>
<circle cx="7.78863" cy="28.5567" r="3.32672" fill="#1A3146" stroke="white" stroke-width="2"/>
<path d="M133.038 28.4938C131.41 28.4938 129.968 28.1506 128.713 27.4641C127.477 26.7776 126.506 25.8459 125.8 24.669C125.113 23.4725 124.77 22.1093 124.77 20.5794C124.77 19.3633 124.966 18.2551 125.358 17.2547C125.751 16.2544 126.29 15.3914 126.977 14.6656C127.683 13.9203 128.516 13.3515 129.477 12.9592C130.458 12.5473 131.527 12.3413 132.684 12.3413C133.704 12.3413 134.656 12.5375 135.538 12.9297C136.421 13.322 137.186 13.8614 137.833 14.5479C138.481 15.2148 138.971 16.019 139.304 16.9605C139.657 17.8824 139.824 18.8925 139.805 19.9909L139.775 21.2561H127.212L126.535 18.7847H136.745L136.274 19.2848V18.6375C136.215 18.0295 136.019 17.4999 135.685 17.0488C135.352 16.578 134.921 16.2152 134.391 15.9602C133.881 15.6856 133.312 15.5483 132.684 15.5483C131.723 15.5483 130.909 15.7346 130.242 16.1073C129.595 16.48 129.105 17.0194 128.771 17.7255C128.438 18.412 128.271 19.275 128.271 20.3146C128.271 21.3149 128.477 22.1878 128.889 22.9331C129.321 23.6785 129.919 24.2571 130.684 24.669C131.468 25.0613 132.38 25.2574 133.42 25.2574C134.146 25.2574 134.813 25.1397 135.421 24.9044C136.029 24.669 136.686 24.2473 137.392 23.6392L139.187 26.1401C138.657 26.6304 138.049 27.0522 137.363 27.4052C136.696 27.7387 135.989 28.0035 135.244 28.1996C134.499 28.3957 133.763 28.4938 133.038 28.4938Z" fill="#1A3146"/>
<path d="M113.992 28.1996L107.46 12.6943H111.403L115.816 24.2865L115.051 24.4924L119.7 12.6943H123.554L116.699 28.1996H113.992Z" fill="#1A3146"/>
<path d="M100.812 28.1997V12.6944H104.431V28.1997H100.812ZM102.577 9.3992C101.851 9.3992 101.283 9.22267 100.871 8.86961C100.478 8.49693 100.282 7.97715 100.282 7.31026C100.282 6.68259 100.488 6.17262 100.9 5.78033C101.312 5.38804 101.871 5.19189 102.577 5.19189C103.322 5.19189 103.891 5.37823 104.284 5.75091C104.695 6.10397 104.901 6.62375 104.901 7.31026C104.901 7.91831 104.695 8.41847 104.284 8.81076C103.872 9.20305 103.303 9.3992 102.577 9.3992Z" fill="#1A3146"/>
<path d="M90.6409 28.1997V8.75195H94.2598V28.1997H90.6409ZM87.5811 16.0485V12.6945H97.6433V16.0485H87.5811Z" fill="#1A3146"/>
<path d="M79.7541 28.4937C78.3027 28.4937 76.9983 28.1406 75.841 27.4345C74.6838 26.7284 73.7717 25.7673 73.1048 24.5512C72.4379 23.3351 72.1045 21.9621 72.1045 20.4321C72.1045 18.9022 72.4379 17.5292 73.1048 16.3131C73.7717 15.097 74.6838 14.1359 75.841 13.4298C76.9983 12.7237 78.3027 12.3706 79.7541 12.3706C81.1468 12.3706 82.4119 12.6354 83.5495 13.165C84.6872 13.6946 85.5698 14.4301 86.1975 15.3716L84.1968 17.7842C83.9026 17.3723 83.5299 16.9996 83.0788 16.6662C82.6276 16.3327 82.1471 16.0679 81.6371 15.8718C81.1271 15.6756 80.6172 15.5776 80.1072 15.5776C79.2442 15.5776 78.4694 15.7933 77.7829 16.2248C77.116 16.6368 76.5864 17.2154 76.1941 17.9607C75.8018 18.6865 75.6057 19.5103 75.6057 20.4321C75.6057 21.354 75.8018 22.1778 76.1941 22.9036C76.606 23.6293 77.1552 24.2079 77.8417 24.6394C78.5282 25.071 79.2932 25.2867 80.1366 25.2867C80.6466 25.2867 81.137 25.2083 81.6077 25.0514C82.0981 24.8748 82.559 24.6296 82.9905 24.3158C83.422 24.002 83.8241 23.6097 84.1968 23.1389L86.1975 25.5809C85.5306 26.444 84.6087 27.1501 83.4318 27.6993C82.2746 28.2289 81.0487 28.4937 79.7541 28.4937Z" fill="#1A3146"/>
<path d="M51.4873 28.1997L59.5194 7.60449H63.1089L71.0821 28.1997H67.1102L62.697 16.4898C62.5989 16.2545 62.4616 15.8818 62.2851 15.3718C62.1281 14.8618 61.9516 14.3126 61.7555 13.7242C61.5593 13.1162 61.3828 12.5571 61.2259 12.0472C61.069 11.5176 60.9513 11.1351 60.8728 10.8997L61.6084 10.8703C61.4907 11.2626 61.3534 11.7039 61.1965 12.1943C61.0395 12.6846 60.8728 13.1946 60.6963 13.7242C60.5198 14.2538 60.3432 14.7638 60.1667 15.2541C60.0098 15.7445 59.8627 16.1858 59.7254 16.5781L55.3121 28.1997H51.4873ZM55.1356 23.4922L56.4596 20.1676H65.8451L67.2573 23.4922H55.1356Z" fill="#1A3146"/>
<path d="M133.421 43.3235V33.8792H134.739V35.4005L134.536 35.2864C134.587 35.0328 134.731 34.792 134.967 34.5638C135.204 34.3271 135.491 34.137 135.829 33.9933C136.176 33.8412 136.531 33.7651 136.894 33.7651C137.494 33.7651 138.027 33.913 138.492 34.2088C138.956 34.5046 139.324 34.9103 139.595 35.4258C139.865 35.9413 140 36.5329 140 37.2006C140 37.8598 139.865 38.4513 139.595 38.9753C139.333 39.4908 138.969 39.9007 138.504 40.205C138.039 40.5008 137.516 40.6487 136.932 40.6487C136.544 40.6487 136.168 40.5726 135.804 40.4205C135.441 40.2599 135.132 40.0571 134.879 39.812C134.625 39.5669 134.469 39.3134 134.41 39.0514L134.739 38.8739V43.3235H133.421ZM136.717 39.4444C137.106 39.4444 137.452 39.3472 137.756 39.1528C138.061 38.9584 138.301 38.6922 138.479 38.3542C138.656 38.0161 138.745 37.6316 138.745 37.2006C138.745 36.7696 138.656 36.3892 138.479 36.0596C138.31 35.7216 138.073 35.4554 137.769 35.261C137.465 35.0666 137.114 34.9694 136.717 34.9694C136.32 34.9694 135.969 35.0666 135.665 35.261C135.36 35.4469 135.12 35.7089 134.942 36.047C134.765 36.385 134.676 36.7696 134.676 37.2006C134.676 37.6316 134.765 38.0161 134.942 38.3542C135.12 38.6922 135.36 38.9584 135.665 39.1528C135.969 39.3472 136.32 39.4444 136.717 39.4444Z" fill="#1A3146"/>
<path d="M128.077 40.661C127.604 40.661 127.19 40.5512 126.835 40.3314C126.488 40.1117 126.218 39.8032 126.024 39.406C125.838 39.0088 125.745 38.5355 125.745 37.9862V33.8789H127.05V37.6313C127.05 38.02 127.11 38.3581 127.228 38.6454C127.355 38.9243 127.532 39.1398 127.76 39.2919C127.997 39.444 128.28 39.5201 128.61 39.5201C128.855 39.5201 129.079 39.4821 129.281 39.406C129.484 39.3215 129.658 39.2074 129.801 39.0637C129.953 38.9201 130.072 38.7468 130.156 38.544C130.241 38.3412 130.283 38.1214 130.283 37.8848V33.8789H131.589V40.5343H130.283V39.1398L130.511 38.9877C130.41 39.3004 130.236 39.5835 129.991 39.837C129.755 40.0906 129.472 40.2934 129.142 40.4455C128.812 40.5892 128.457 40.661 128.077 40.661Z" fill="#1A3146"/>
<path d="M120.938 40.6618C120.287 40.6618 119.704 40.5139 119.189 40.2181C118.681 39.9139 118.28 39.504 117.984 38.9885C117.688 38.4645 117.541 37.8687 117.541 37.201C117.541 36.5334 117.688 35.9418 117.984 35.4263C118.28 34.9023 118.681 34.4924 119.189 34.1966C119.704 33.8924 120.287 33.7402 120.938 33.7402C121.58 33.7402 122.155 33.8924 122.662 34.1966C123.178 34.4924 123.583 34.9023 123.879 35.4263C124.175 35.9418 124.323 36.5334 124.323 37.201C124.323 37.8687 124.175 38.4645 123.879 38.9885C123.583 39.504 123.178 39.9139 122.662 40.2181C122.155 40.5139 121.58 40.6618 120.938 40.6618ZM120.938 39.4702C121.335 39.4702 121.69 39.373 122.003 39.1786C122.315 38.9758 122.561 38.7053 122.738 38.3673C122.916 38.0208 123 37.632 122.992 37.201C123 36.7616 122.916 36.3728 122.738 36.0347C122.561 35.6882 122.315 35.4178 122.003 35.2234C121.69 35.029 121.335 34.9319 120.938 34.9319C120.541 34.9319 120.182 35.0333 119.86 35.2361C119.548 35.4305 119.303 35.7009 119.125 36.0474C118.948 36.3855 118.863 36.77 118.872 37.201C118.863 37.632 118.948 38.0208 119.125 38.3673C119.303 38.7053 119.548 38.9758 119.86 39.1786C120.182 39.373 120.541 39.4702 120.938 39.4702Z" fill="#1A3146"/>
<path d="M113.118 40.535V33.8797H114.437V35.9714L114.31 35.4643C114.403 35.1431 114.559 34.8516 114.779 34.5896C115.007 34.3276 115.265 34.1205 115.552 33.9684C115.848 33.8163 116.152 33.7402 116.465 33.7402C116.609 33.7402 116.744 33.7529 116.871 33.7783C117.006 33.8036 117.111 33.8332 117.187 33.867L116.845 35.2868C116.744 35.2446 116.63 35.2107 116.503 35.1854C116.385 35.1516 116.266 35.1347 116.148 35.1347C115.92 35.1347 115.7 35.1812 115.489 35.2741C115.286 35.3586 115.104 35.4812 114.944 35.6418C114.792 35.7939 114.669 35.9756 114.576 36.1869C114.483 36.3897 114.437 36.6137 114.437 36.8587V40.535H113.118Z" fill="#1A3146"/>
<path d="M107.709 40.6616C107.066 40.6616 106.466 40.5475 105.909 40.3193C105.351 40.0827 104.861 39.7573 104.438 39.3432C104.015 38.9291 103.686 38.4474 103.449 37.898C103.221 37.3403 103.107 36.7402 103.107 36.0979C103.107 35.4641 103.221 34.8725 103.449 34.3232C103.686 33.7738 104.011 33.2963 104.425 32.8907C104.848 32.4766 105.338 32.1554 105.896 31.9272C106.454 31.6991 107.054 31.585 107.696 31.585C108.144 31.585 108.579 31.6483 109.002 31.7751C109.433 31.9019 109.821 32.0794 110.168 32.3075C110.514 32.5357 110.798 32.7977 111.017 33.0935L110.13 34.0189C109.876 33.7738 109.614 33.571 109.344 33.4104C109.082 33.2499 108.812 33.1273 108.533 33.0428C108.254 32.9583 107.975 32.916 107.696 32.916C107.24 32.916 106.817 32.9963 106.428 33.1569C106.048 33.3175 105.71 33.5414 105.414 33.8288C105.127 34.1161 104.903 34.4542 104.742 34.8429C104.582 35.2232 104.501 35.6416 104.501 36.0979C104.501 36.5374 104.586 36.9557 104.755 37.3529C104.924 37.7417 105.156 38.084 105.452 38.3798C105.756 38.6755 106.103 38.908 106.492 39.077C106.889 39.246 107.307 39.3305 107.747 39.3305C108.076 39.3305 108.389 39.284 108.685 39.1911C108.981 39.0897 109.243 38.9502 109.471 38.7727C109.699 38.5953 109.876 38.3924 110.003 38.1642C110.13 37.9276 110.193 37.6783 110.193 37.4163V37.1628L110.383 37.3403H107.671V35.9838H111.6C111.617 36.0768 111.63 36.1698 111.638 36.2627C111.647 36.3472 111.651 36.4317 111.651 36.5163C111.66 36.5923 111.664 36.6684 111.664 36.7444C111.664 37.3276 111.562 37.86 111.36 38.3417C111.157 38.815 110.874 39.2249 110.51 39.5714C110.155 39.9179 109.737 40.1883 109.255 40.3827C108.782 40.5686 108.266 40.6616 107.709 40.6616Z" fill="#1A3146"/>
<path d="M94.7471 40.535V33.8797H96.0655V35.9714L95.9387 35.4643C96.0317 35.1431 96.188 34.8516 96.4077 34.5896C96.6359 34.3276 96.8937 34.1205 97.181 33.9684C97.4768 33.8163 97.7811 33.7402 98.0938 33.7402C98.2374 33.7402 98.3727 33.7529 98.4994 33.7783C98.6346 33.8036 98.7403 33.8332 98.8163 33.867L98.4741 35.2868C98.3727 35.2446 98.2586 35.2107 98.1318 35.1854C98.0135 35.1516 97.8952 35.1347 97.7768 35.1347C97.5487 35.1347 97.3289 35.1812 97.1176 35.2741C96.9148 35.3586 96.7331 35.4812 96.5725 35.6418C96.4204 35.7939 96.2979 35.9756 96.2049 36.1869C96.1119 36.3897 96.0655 36.6137 96.0655 36.8587V40.535H94.7471Z" fill="#1A3146"/>
<path d="M90.4241 40.6613C89.7395 40.6613 89.131 40.5176 88.5986 40.2303C88.0746 39.9345 87.6605 39.533 87.3563 39.026C87.0605 38.5189 86.9126 37.9358 86.9126 37.2766C86.9126 36.7526 86.9971 36.2751 87.1661 35.8441C87.3352 35.4131 87.5676 35.0412 87.8634 34.7285C88.1676 34.4074 88.5268 34.1623 88.9409 33.9933C89.3635 33.8158 89.8198 33.7271 90.31 33.7271C90.741 33.7271 91.1424 33.8116 91.5143 33.9806C91.8862 34.1412 92.2073 34.3651 92.4777 34.6525C92.7566 34.9398 92.9679 35.2821 93.1116 35.6793C93.2637 36.068 93.3355 36.4948 93.3271 36.9596L93.3144 37.5174H87.876L87.5845 36.4779H92.1862L91.996 36.6934V36.3892C91.9707 36.1103 91.8777 35.861 91.7171 35.6413C91.5566 35.4215 91.3537 35.2483 91.1086 35.1215C90.8635 34.9947 90.5973 34.9314 90.31 34.9314C89.8536 34.9314 89.4691 35.0201 89.1564 35.1976C88.8437 35.3666 88.6071 35.6201 88.4465 35.9582C88.2859 36.2878 88.2056 36.6977 88.2056 37.1878C88.2056 37.6526 88.3028 38.0583 88.4972 38.4048C88.6916 38.7429 88.9662 39.0048 89.3212 39.1908C89.6762 39.3767 90.086 39.4697 90.5509 39.4697C90.8805 39.4697 91.1847 39.4147 91.4636 39.3049C91.7509 39.195 92.0594 38.9964 92.389 38.7091L93.0482 39.6345C92.8454 39.8373 92.5961 40.0148 92.3003 40.1669C92.0129 40.319 91.7044 40.4416 91.3748 40.5345C91.0537 40.619 90.7368 40.6613 90.4241 40.6613Z" fill="#1A3146"/>
<path d="M79.7788 40.535V33.8797H81.0845V35.2488L80.8563 35.4009C80.9409 35.1051 81.1057 34.8347 81.3507 34.5896C81.5958 34.336 81.8874 34.1332 82.2254 33.9811C82.5635 33.8205 82.91 33.7402 83.2649 33.7402C83.772 33.7402 84.1946 33.8416 84.5326 34.0445C84.8707 34.2389 85.1242 34.5389 85.2932 34.9445C85.4623 35.3502 85.5468 35.8615 85.5468 36.4784V40.535H84.2411V36.5672C84.2411 36.1869 84.1904 35.8742 84.0889 35.6291C83.9875 35.3755 83.8312 35.1938 83.6199 35.084C83.4086 34.9657 83.1466 34.915 82.8339 34.9319C82.5804 34.9319 82.348 34.9741 82.1367 35.0586C81.9254 35.1347 81.7395 35.2446 81.5789 35.3882C81.4268 35.5319 81.3043 35.7009 81.2113 35.8953C81.1268 36.0812 81.0845 36.2841 81.0845 36.5038V40.535H80.438C80.3281 40.535 80.2183 40.535 80.1084 40.535C79.9985 40.535 79.8887 40.535 79.7788 40.535Z" fill="#1A3146"/>
<path d="M74.666 40.535V33.8797H75.9844V35.9714L75.8576 35.4643C75.9506 35.1431 76.107 34.8516 76.3267 34.5896C76.5549 34.3276 76.8126 34.1205 77.1 33.9684C77.3958 33.8163 77.7 33.7402 78.0127 33.7402C78.1564 33.7402 78.2916 33.7529 78.4184 33.7783C78.5536 33.8036 78.6592 33.8332 78.7353 33.867L78.393 35.2868C78.2916 35.2446 78.1775 35.2107 78.0507 35.1854C77.9324 35.1516 77.8141 35.1347 77.6958 35.1347C77.4676 35.1347 77.2479 35.1812 77.0366 35.2741C76.8338 35.3586 76.6521 35.4812 76.4915 35.6418C76.3394 35.7939 76.2168 35.9756 76.1239 36.1869C76.0309 36.3897 75.9844 36.6137 75.9844 36.8587V40.535H74.666Z" fill="#1A3146"/>
<path d="M69.2051 40.6618C68.6558 40.6618 68.1529 40.5097 67.6966 40.2054C67.2487 39.9012 66.8895 39.4871 66.619 38.9631C66.3486 38.4391 66.2134 37.8475 66.2134 37.1883C66.2134 36.5207 66.3486 35.9291 66.619 35.4136C66.8979 34.8896 67.2698 34.4797 67.7346 34.1839C68.2079 33.8881 68.7361 33.7402 69.3192 33.7402C69.6657 33.7402 69.9826 33.7909 70.27 33.8924C70.5573 33.9938 70.8066 34.1374 71.0179 34.3234C71.2376 34.5008 71.4151 34.7079 71.5503 34.9445C71.694 35.1812 71.7827 35.4347 71.8165 35.7051L71.525 35.6037V33.8797H72.8434V40.535H71.525V38.9504L71.8292 38.8617C71.7785 39.0899 71.6729 39.3138 71.5123 39.5336C71.3602 39.7448 71.1616 39.935 70.9165 40.104C70.6799 40.273 70.4136 40.4083 70.1178 40.5097C69.8305 40.6111 69.5263 40.6618 69.2051 40.6618ZM69.5474 39.4575C69.9446 39.4575 70.2953 39.3603 70.5996 39.1659C70.9038 38.9715 71.1404 38.7053 71.3095 38.3673C71.4869 38.0208 71.5757 37.6278 71.5757 37.1883C71.5757 36.7573 71.4869 36.3728 71.3095 36.0347C71.1404 35.6967 70.9038 35.4305 70.5996 35.2361C70.2953 35.0417 69.9446 34.9445 69.5474 34.9445C69.1586 34.9445 68.8121 35.0417 68.5079 35.2361C68.2121 35.4305 67.9755 35.6967 67.798 36.0347C67.629 36.3728 67.5444 36.7573 67.5444 37.1883C67.5444 37.6278 67.629 38.0208 67.798 38.3673C67.9755 38.7053 68.2121 38.9715 68.5079 39.1659C68.8121 39.3603 69.1586 39.4575 69.5474 39.4575Z" fill="#1A3146"/>
<path d="M62.3215 40.6613C61.637 40.6613 61.0285 40.5176 60.4961 40.2303C59.9721 39.9345 59.558 39.533 59.2537 39.026C58.958 38.5189 58.8101 37.9358 58.8101 37.2766C58.8101 36.7526 58.8946 36.2751 59.0636 35.8441C59.2326 35.4131 59.465 35.0412 59.7608 34.7285C60.0651 34.4074 60.4242 34.1623 60.8384 33.9933C61.2609 33.8158 61.7173 33.7271 62.2075 33.7271C62.6385 33.7271 63.0399 33.8116 63.4118 33.9806C63.7836 34.1412 64.1048 34.3651 64.3752 34.6525C64.6541 34.9398 64.8654 35.2821 65.009 35.6793C65.1612 36.068 65.233 36.4948 65.2245 36.9596L65.2119 37.5174H59.7735L59.4819 36.4779H64.0836L63.8935 36.6934V36.3892C63.8681 36.1103 63.7752 35.861 63.6146 35.6413C63.454 35.4215 63.2512 35.2483 63.0061 35.1215C62.761 34.9947 62.4948 34.9314 62.2075 34.9314C61.7511 34.9314 61.3666 35.0201 61.0539 35.1976C60.7412 35.3666 60.5045 35.6201 60.344 35.9582C60.1834 36.2878 60.1031 36.6977 60.1031 37.1878C60.1031 37.6526 60.2003 38.0583 60.3947 38.4048C60.589 38.7429 60.8637 39.0048 61.2187 39.1908C61.5736 39.3767 61.9835 39.4697 62.4483 39.4697C62.7779 39.4697 63.0822 39.4147 63.361 39.3049C63.6484 39.195 63.9569 38.9964 64.2865 38.7091L64.9457 39.6345C64.7428 39.8373 64.4935 40.0148 64.1977 40.1669C63.9104 40.319 63.6019 40.4416 63.2723 40.5345C62.9512 40.619 62.6342 40.6613 62.3215 40.6613Z" fill="#1A3146"/>
<path d="M52.2051 40.5349V31.6611H53.5742V39.2165H57.7322V40.5349H52.2051Z" fill="#1A3146"/>
<path d="M20.6191 33.5533V31.749H27.527V33.5533C27.527 33.8626 27.3208 34.0688 27.0115 34.0688H26.8569C26.5991 35.4092 25.465 36.3886 24.0731 36.3886C22.7327 36.3886 21.5471 35.3576 21.2893 34.0688H21.1347C20.8253 34.0688 20.6191 33.8626 20.6191 33.5533Z" fill="#1A3146"/>
<path d="M23.595 13.4214C19.9348 13.6276 16.8933 16.5145 16.4809 20.1746C16.2747 22.2367 16.8933 24.2472 18.1821 25.7937C19.1615 26.9794 19.8833 28.3197 20.2441 29.7116H28.2033C28.5641 28.3197 28.8532 26.9278 29.8327 25.7421C30.9668 24.4018 31.5854 22.7006 31.5854 20.9479C31.5854 16.6691 27.9253 13.2152 23.595 13.4214Z" fill="#F7BC35"/>
<path d="M20.7222 31.2404C20.7222 30.828 20.6707 30.4671 20.6191 30.0547H27.7332C27.6817 30.4155 27.6301 30.828 27.6301 31.2404H20.7222Z" fill="#1A3146"/>
<rect x="21.2012" y="26.3926" width="1.73069" height="3.46137" fill="white"/>
<rect x="23.3638" y="25.5273" width="1.73069" height="4.32672" fill="white"/>
<rect x="25.5278" y="24.2295" width="1.73069" height="5.62473" fill="white"/>
<path d="M25.4665 20.0965L26.3456 20.7948C24.8366 22.7869 21.7726 24.8508 20.4292 25.6337C23.8169 25.1817 26.1744 22.5089 26.9298 21.229L27.8954 21.827L27.748 19.472L25.4665 20.0965Z" fill="white"/>
</svg>
