<svg width="24" height="16" viewBox="0 0 24 16" fill="none" xmlns="http://www.w3.org/2000/svg">
<path fill-rule="evenodd" clip-rule="evenodd" d="M1.62582 1.39187L1.75938 1.24162C2.24889 0.729739 2.97814 0.473633 3.94646 0.473633H20.5416C21.4541 0.473633 22.1553 0.696348 22.6452 1.14144L22.6619 1.15814C22.7621 1.24729 22.8626 1.35281 22.9624 1.47535C22.9624 1.4867 22.9681 1.49772 22.9791 1.50874L22.9958 1.52544C23.3634 1.98189 23.5467 2.62733 23.5467 3.46209V12.9116C23.5357 14.9151 22.534 15.9168 20.5416 15.9168H3.94646C1.95405 15.9058 0.958008 14.904 0.958008 12.9116V3.46209C0.958008 2.56054 1.18072 1.87036 1.62582 1.39187ZM21.0925 2.10977C20.9256 2.06536 20.7419 2.04833 20.5419 2.05969H3.94646C3.82392 2.04867 3.70705 2.05401 3.59586 2.07638L12.1939 10.7913L21.0925 2.10977ZM2.54406 3.27844C2.53304 3.3342 2.53304 3.39531 2.54406 3.46209V12.9116C2.54406 13.8579 3.01153 14.3307 3.94646 14.3307H20.5416C21.4875 14.3307 21.9607 13.8579 21.9607 12.9116V3.47879L12.7449 12.4775C12.5779 12.6335 12.3889 12.7113 12.1776 12.7113C11.9549 12.7003 11.7655 12.6221 11.6099 12.4775L2.54406 3.27844Z" fill="#4361EE"/>
</svg>
