<svg width="24" height="24" viewBox="0 0 24 24" fill="none" xmlns="http://www.w3.org/2000/svg">
<g clip-path="url(#clip0_1075_556)">
<path d="M12.8531 6.41952C14.0273 6.62108 15.1007 7.17655 15.9562 8.02968C16.807 8.88046 17.3648 9.95389 17.5664 11.1305C17.6437 11.5945 18.0422 11.9297 18.5132 11.9297C18.5742 11.9297 18.6281 11.9226 18.6656 11.9156C18.6679 11.9156 18.6703 11.9156 18.6726 11.9133C18.9281 11.8711 19.1507 11.7328 19.2984 11.5195C19.4461 11.3086 19.5023 11.0555 19.4578 10.8047C19.1906 9.23436 18.45 7.80468 17.3132 6.66796C16.1718 5.53124 14.7398 4.79061 13.1718 4.52577H13.1695C12.6468 4.43905 12.1523 4.79296 12.0656 5.31327C11.9836 5.83827 12.3351 6.3328 12.8531 6.41952Z" fill="#4361EE"/>
<path d="M18.7614 14.4656C18.2364 13.9195 17.6013 13.6312 16.9239 13.6312C16.2536 13.6312 15.6138 13.9148 15.077 14.4539L13.7435 15.7875C13.7106 15.7711 13.6778 15.7547 13.6474 15.7383L13.5794 15.7055C13.4364 15.6328 13.2724 15.5508 13.1364 15.4664C11.7677 14.5969 10.5184 13.4578 9.31376 11.9813C8.79814 11.332 8.4372 10.7812 8.17236 10.2328C8.50751 9.91641 8.81923 9.6 9.1122 9.3C9.17782 9.23437 9.24345 9.16641 9.31142 9.09844C9.37704 9.03047 9.44501 8.9625 9.51298 8.89453C10.0708 8.33672 10.3661 7.68984 10.3638 7.02422C10.3638 6.36094 10.0684 5.71641 9.51298 5.16328L8.21689 3.86719C8.14189 3.79219 8.06689 3.71719 7.99423 3.64219C7.92157 3.56719 7.84657 3.49219 7.77392 3.41953L7.67079 3.31406C7.41532 3.05391 7.15048 2.78438 6.88329 2.53828C6.36298 2.02031 5.73251 1.74609 5.06454 1.74609C4.39892 1.74609 3.76376 2.02031 3.22235 2.53828C3.22001 2.54063 3.21767 2.54062 3.21767 2.54297L1.59345 4.16484C0.930167 4.82812 0.552823 5.63672 0.470792 6.56719V6.56953C0.384073 7.67109 0.583292 8.83359 1.09892 10.2281C1.87939 12.3375 3.05126 14.2922 4.78329 16.3781C6.89736 18.8977 9.43564 20.8852 12.3255 22.2844H12.3278C13.4411 22.8164 14.9364 23.4398 16.6239 23.55C16.6263 23.55 16.6286 23.55 16.6309 23.55H16.6427C16.7388 23.5547 16.8395 23.5594 16.945 23.5594C18.1286 23.5594 19.127 23.1305 19.9099 22.2844L19.9216 22.2727C19.931 22.2633 19.938 22.2563 19.945 22.2469C20.1794 21.9656 20.4489 21.7055 20.7513 21.4148C20.9599 21.2156 21.1731 21.0117 21.3794 20.7914C21.9114 20.2359 22.1927 19.5891 22.1903 18.9211C22.188 18.2508 21.902 17.6109 21.363 17.0719L18.7614 14.4656ZM18.5036 20.9977C18.0864 21.443 17.6083 21.6422 16.9567 21.6422C16.8958 21.6422 16.8278 21.6375 16.7575 21.6328C15.4075 21.5461 14.1302 21.0117 13.1692 20.5547C10.5161 19.2773 8.1911 17.4586 6.25751 15.1477C4.67548 13.2422 3.60907 11.4656 2.9036 9.5625C2.48173 8.43047 2.32235 7.55391 2.38798 6.72656C2.43017 6.24375 2.61064 5.85938 2.95517 5.51953L4.56767 3.90703C4.73642 3.74531 4.90985 3.65859 5.07157 3.65859C5.22392 3.65859 5.38564 3.74297 5.55673 3.90938C5.55907 3.91172 5.56142 3.91406 5.56376 3.91641C5.84267 4.17891 6.11454 4.45547 6.40282 4.74609L6.4122 4.75547C6.55048 4.89844 6.70986 5.0625 6.87157 5.21953L8.16532 6.51328C8.54267 6.89062 8.54267 7.15547 8.16532 7.53281C8.02939 7.66875 7.8911 7.80703 7.75517 7.94766L7.65907 8.04609C7.29579 8.41406 6.9536 8.76094 6.58095 9.09141C6.57626 9.09609 6.56923 9.10078 6.56454 9.10781L6.54111 9.13125C6.14501 9.52734 6.0372 10.0008 6.22235 10.5352C6.22704 10.5492 6.23173 10.5609 6.23642 10.5727C6.23876 10.5797 6.24111 10.5867 6.24579 10.5938C6.59267 11.4305 7.08017 12.225 7.83017 13.1742C7.83017 13.1766 7.83251 13.1766 7.83251 13.1789C9.16376 14.8172 10.5677 16.0969 12.1263 17.0859C12.3302 17.2148 12.5411 17.3227 12.738 17.4211C12.8833 17.4937 13.0474 17.5781 13.1833 17.6602C13.1927 17.6672 13.202 17.6719 13.2114 17.6766L13.2184 17.6813C13.2325 17.6883 13.2466 17.6977 13.263 17.7047C13.4669 17.8078 13.6684 17.857 13.877 17.857C14.2333 17.857 14.5614 17.7094 14.8263 17.4305L16.4481 15.8086C16.5653 15.6914 16.7481 15.5508 16.9403 15.5508C17.1184 15.5508 17.2919 15.6891 17.4044 15.8063C17.4067 15.8086 17.4067 15.8086 17.4091 15.8109L20.027 18.4289C20.2849 18.6867 20.4606 18.9914 20.0059 19.4695L20.0036 19.4719C19.8606 19.6266 19.7083 19.7742 19.5466 19.9313C19.5114 19.9641 19.4763 19.9992 19.4411 20.0344C19.113 20.3414 18.7989 20.6461 18.5036 20.9977Z" fill="#4361EE"/>
<path d="M23.5336 10.6174C23.1024 8.07909 21.9024 5.76347 20.0625 3.92362C18.2157 2.08143 15.9 0.881434 13.3594 0.452527C12.8368 0.365809 12.3422 0.719715 12.2555 1.24003C12.1688 1.76268 12.5227 2.25722 13.0407 2.34393C15.1899 2.70956 17.1469 3.72675 18.7032 5.28065C20.2594 6.8369 21.2743 8.79393 21.6399 10.9408C21.7172 11.4049 22.1157 11.74 22.5868 11.74C22.5891 11.74 22.5914 11.74 22.5938 11.74C22.6524 11.74 22.7016 11.733 22.7391 11.726C22.7414 11.726 22.7438 11.726 22.7461 11.7236C23.0016 11.6814 23.2243 11.5432 23.3719 11.3299C23.5219 11.1213 23.5782 10.8682 23.5336 10.6174Z" fill="#4361EE"/>
</g>
<defs>
<clipPath id="clip0_1075_556">
<rect width="24" height="24" fill="white"/>
</clipPath>
</defs>
</svg>
