<svg width="19" height="18" viewBox="0 0 19 18" fill="none" xmlns="http://www.w3.org/2000/svg">
<path d="M9.02447 0.963526C9.17415 0.502871 9.82585 0.50287 9.97553 0.963525L11.7451 6.40983C11.8121 6.61584 12.0041 6.75532 12.2207 6.75532H17.9473C18.4316 6.75532 18.633 7.37513 18.2411 7.65983L13.6082 11.0258C13.433 11.1532 13.3597 11.3788 13.4266 11.5848L15.1962 17.0312C15.3459 17.4918 14.8187 17.8749 14.4268 17.5902L9.79389 14.2242C9.61865 14.0968 9.38135 14.0968 9.20611 14.2242L4.5732 17.5902C4.18135 17.8749 3.65411 17.4918 3.80378 17.0312L5.57339 11.5848C5.64033 11.3788 5.567 11.1532 5.39176 11.0258L0.758856 7.65983C0.366999 7.37513 0.568387 6.75532 1.05275 6.75532H6.77933C6.99594 6.75532 7.18792 6.61584 7.25486 6.40983L9.02447 0.963526Z" fill="#4539B4"/>
</svg>
