<svg width="22" height="22" viewBox="0 0 22 22" fill="none" xmlns="http://www.w3.org/2000/svg">
<path d="M21.0624 7.79445L19.1662 5.89824C19.0132 5.74731 18.8092 5.65918 18.5945 5.65123C18.3797 5.64327 18.1698 5.71607 18.006 5.85527C17.7532 6.07043 17.4289 6.18277 17.0972 6.17004C16.7654 6.1573 16.4506 6.02042 16.2151 5.78652C15.9813 5.551 15.8445 5.23627 15.8318 4.90466C15.819 4.57306 15.9313 4.24876 16.1463 3.99601C16.2855 3.83228 16.3583 3.62233 16.3504 3.40758C16.3424 3.19282 16.2543 2.98884 16.1034 2.83585L14.2054 0.937493C14.045 0.777409 13.8277 0.6875 13.6011 0.6875C13.3745 0.6875 13.1571 0.777409 12.9967 0.937493L9.97388 3.95991C9.78725 4.14721 9.64651 4.37517 9.56267 4.62593C9.54634 4.67414 9.51913 4.71794 9.48314 4.75394C9.44714 4.78993 9.40334 4.81714 9.35513 4.83347C9.10427 4.9173 8.87628 5.05821 8.68911 5.24511L0.937554 12.9967C0.77747 13.1571 0.687561 13.3744 0.687561 13.601C0.687561 13.8276 0.77747 14.045 0.937554 14.2054L2.83591 16.1016C2.9889 16.2525 3.19288 16.3406 3.40764 16.3486C3.62239 16.3566 3.83234 16.2838 3.99607 16.1446C4.24825 15.9277 4.57308 15.8141 4.90547 15.8266C5.23786 15.839 5.55325 15.9767 5.78845 16.2119C6.02365 16.4471 6.16129 16.7625 6.17377 17.0949C6.18625 17.4272 6.07266 17.7521 5.85576 18.0043C5.71656 18.168 5.64376 18.3779 5.65172 18.5927C5.65967 18.8074 5.7478 19.0114 5.89872 19.1644L7.79494 21.0606C7.95533 21.2207 8.17268 21.3106 8.39929 21.3106C8.6259 21.3106 8.84325 21.2207 9.00364 21.0606L16.7552 13.3091C16.942 13.122 17.0829 12.8942 17.1668 12.6435C17.1831 12.5951 17.2103 12.5512 17.2464 12.5151C17.2825 12.479 17.3264 12.4518 17.3748 12.4355C17.6254 12.3516 17.8533 12.2109 18.0404 12.0243L21.0628 9.00144C21.2223 8.84106 21.3118 8.62404 21.3117 8.39785C21.3117 8.17166 21.222 7.95471 21.0624 7.79445ZM11.2496 6.52042C11.1858 6.58428 11.11 6.63493 11.0266 6.66949C10.9431 6.70405 10.8537 6.72184 10.7634 6.72184C10.6731 6.72184 10.5837 6.70405 10.5003 6.66949C10.4169 6.63493 10.3411 6.58428 10.2772 6.52042L9.78267 6.02585C9.65688 5.89627 9.58712 5.7224 9.58848 5.54181C9.58984 5.36122 9.66221 5.18841 9.78993 5.06074C9.91766 4.93307 10.0905 4.86078 10.2711 4.8595C10.4517 4.85822 10.6255 4.92805 10.7551 5.0539L11.2496 5.54804C11.3135 5.61188 11.3641 5.68768 11.3987 5.7711C11.4333 5.85452 11.451 5.94393 11.451 6.03423C11.451 6.12453 11.4333 6.21394 11.3987 6.29736C11.3641 6.38078 11.3135 6.45658 11.2496 6.52042ZM13.1402 8.41105C13.0113 8.53988 12.8365 8.61225 12.6543 8.61225C12.472 8.61225 12.2972 8.53988 12.1683 8.41105L11.6956 7.93839C11.6318 7.87454 11.5811 7.79875 11.5466 7.71532C11.512 7.6319 11.4943 7.54249 11.4943 7.4522C11.4943 7.36191 11.512 7.2725 11.5466 7.18908C11.5811 7.10565 11.6318 7.02986 11.6956 6.96601C11.8246 6.83706 11.9995 6.76462 12.1818 6.76462C12.2721 6.76462 12.3615 6.78241 12.445 6.81696C12.5284 6.85151 12.6042 6.90216 12.668 6.96601L13.1407 7.43866C13.2048 7.5025 13.2556 7.57836 13.2903 7.66188C13.325 7.74541 13.3429 7.83496 13.343 7.92541C13.343 8.01586 13.3252 8.10543 13.2906 8.18899C13.2559 8.27254 13.2051 8.34844 13.1411 8.41234L13.1402 8.41105ZM15.0309 10.3017C14.967 10.3655 14.8912 10.4162 14.8078 10.4507C14.7244 10.4853 14.635 10.5031 14.5447 10.5031C14.4544 10.5031 14.365 10.4853 14.2815 10.4507C14.1981 10.4162 14.1223 10.3655 14.0585 10.3017L13.5858 9.82902C13.46 9.69944 13.3903 9.52556 13.3916 9.34497C13.393 9.16438 13.4654 8.99158 13.5931 8.8639C13.7208 8.73623 13.8937 8.66394 14.0743 8.66266C14.2548 8.66138 14.4287 8.73121 14.5582 8.85706L15.0309 9.32972C15.0951 9.39345 15.1462 9.46924 15.1811 9.55275C15.216 9.63625 15.234 9.72582 15.2342 9.81632C15.2344 9.90683 15.2168 9.99648 15.1822 10.0801C15.1477 10.1638 15.097 10.2398 15.033 10.3038L15.0309 10.3017ZM16.94 12.2155C16.8761 12.2794 16.8003 12.33 16.7169 12.3646C16.6335 12.3991 16.5441 12.4169 16.4538 12.4169C16.3635 12.4169 16.2741 12.3991 16.1906 12.3646C16.1072 12.33 16.0314 12.2794 15.9676 12.2155L15.476 11.7214C15.4108 11.6577 15.3589 11.5817 15.3234 11.4978C15.2878 11.414 15.2692 11.3238 15.2688 11.2327C15.2684 11.1416 15.2861 11.0513 15.3208 10.9671C15.3556 10.8829 15.4068 10.8064 15.4713 10.7421C15.5359 10.6778 15.6127 10.6271 15.697 10.5927C15.7814 10.5583 15.8718 10.5411 15.9629 10.542C16.054 10.5428 16.1441 10.5618 16.2278 10.5978C16.3115 10.6338 16.3872 10.686 16.4506 10.7516L16.9425 11.2453C17.0064 11.3091 17.057 11.385 17.0915 11.4684C17.126 11.5518 17.1438 11.6412 17.1438 11.7315C17.1437 11.8218 17.1259 11.9112 17.0913 11.9947C17.0567 12.0781 17.006 12.1538 16.9421 12.2176L16.94 12.2155Z" fill="#3056D3"/>
</svg>
