<svg width="50" height="50" viewBox="0 0 50 50" fill="none" xmlns="http://www.w3.org/2000/svg">
<path d="M48.6875 20.7643C48.2999 20.5959 47.8731 20.5562 47.4637 20.6507C47.0543 20.7451 46.6818 20.9691 46.3958 21.293L42.2083 25.9626H39.875V23.2159C39.875 22.4725 39.7365 21.7364 39.4674 21.0496C39.1984 20.3628 38.804 19.7387 38.3068 19.2131C37.8096 18.6874 37.2194 18.2705 36.5698 17.986C35.9202 17.7015 35.224 17.5551 34.5208 17.5551H30.9583C33.3125 16.2335 34.9167 13.6123 34.9167 10.5727C34.9167 6.18943 31.5833 2.64317 27.4375 2.64317C24.7917 2.64317 22.4792 4.07489 21.125 6.27753C20.5464 4.44853 19.4384 2.85823 17.9578 1.73165C16.4773 0.605074 14.6991 -0.000717037 12.875 6.36928e-07C8.04167 6.36928e-07 4.125 4.163 4.125 9.2511C4.125 12.9075 6.14583 16.0793 9.0625 17.5551H5.35417C3.93415 17.5551 2.5723 18.1515 1.5682 19.2131C0.564098 20.2747 0 21.7145 0 23.2159V44.3392C0 45.8405 0.564098 47.2804 1.5682 48.342C2.5723 49.4036 3.93415 50 5.35417 50H34.5208C35.9408 50 37.3027 49.4036 38.3068 48.342C39.3109 47.2804 39.875 45.8405 39.875 44.3392V40.9185H42.2292L46.3958 45.5881C47.0604 46.2907 47.9896 46.4251 48.6875 46.1167C49.0751 45.9535 49.4075 45.671 49.6415 45.3058C49.8755 44.9405 50.0004 44.5094 50 44.0683V22.7907C50 21.9097 49.4792 21.0947 48.6875 20.7643ZM27.4375 6.69604C29.4583 6.69604 31.0833 8.43612 31.0833 10.5727C31.0833 12.7093 29.4583 14.4273 27.4375 14.4273C26.4678 14.4273 25.5378 14.02 24.8521 13.2951C24.1665 12.5701 23.7812 11.5869 23.7812 10.5617C23.7812 9.53644 24.1665 8.5532 24.8521 7.82826C25.5378 7.10331 26.4678 6.69604 27.4375 6.69604ZM8.58333 9.2511C8.58333 6.76212 10.5 4.73568 12.875 4.73568C15.2292 4.73568 17.125 6.76212 17.125 9.2511C17.125 11.7621 15.2292 13.7665 12.875 13.7665C10.5 13.7665 8.58333 11.7621 8.58333 9.2511ZM20.5417 13.7004C21.2083 15.3524 22.4167 16.7181 23.8958 17.5551H16.6875C18.3125 16.7181 19.6667 15.3744 20.5417 13.7004ZM25.7083 35.9031L19.4375 40.6828C17.7917 41.9383 15.5 40.7048 15.5 38.5683V28.9648C15.5 26.8282 17.7917 25.5947 19.4375 26.8502L25.7083 31.652C27.0833 32.6872 27.0833 34.8458 25.7083 35.9031Z" fill="white"/>
</svg>
