<svg width="50" height="50" viewBox="0 0 50 50" fill="none" xmlns="http://www.w3.org/2000/svg">
<path fill-rule="evenodd" clip-rule="evenodd" d="M44.4979 17.6064C43.9961 15.6352 43.3318 13.6383 42.5311 11.5818C40.9509 8.32607 38.0825 7.20906 36.2016 8.08672C28.7251 11.6095 26.7147 13.8444 24.9593 13.9312C23.1142 14.0225 21.5387 11.7858 13.688 8.08672C11.8071 7.20906 8.93873 8.32595 7.35854 11.5818C6.56466 13.6208 5.90499 15.601 5.40476 17.5559L7.79364 25.9523C7.89258 26.3001 8.02307 26.6351 8.1929 26.9531C9.29411 26.5697 10.5419 26.6301 11.5994 27.1402C11.9257 23.3645 12.5922 20.1864 13.5992 17.6063C14.2592 15.9154 14.5966 14.6051 16.5721 14.4395C17.3995 14.3702 18.228 14.6067 19.0574 15.1491C20.0699 15.6724 22.5479 16.5633 25.0122 16.5584C27.432 16.5537 29.8387 15.6625 30.8323 15.1491C31.6617 14.6067 32.4902 14.3702 33.3175 14.4395C35.293 14.6051 35.6304 15.9154 36.2905 17.6063C37.3001 20.1929 37.9675 23.3803 38.2928 27.1685C39.3526 26.6542 40.6064 26.5953 41.7092 26.9857C41.8852 26.6601 42.0198 26.3166 42.1213 25.9598L44.4979 17.6064ZM29.6736 36.0428L38.6008 28.8916C40.1764 27.635 42.7476 28.6051 42.6662 30.0731C42.6449 30.4586 42.44 30.8152 42.1214 31.0681L35.3922 36.4109C35.2346 36.541 35.1337 36.7285 35.111 36.9331C35.0883 37.1378 35.1456 37.3433 35.2707 37.5056C35.3958 37.6679 35.5787 37.774 35.7802 37.8013C35.9816 37.8285 36.1856 37.7747 36.3483 37.6513L43.0776 32.3085C44.4892 31.1876 44.6219 29.1831 43.3231 27.9182C43.2739 27.8703 43.2188 27.829 43.159 27.7956C43.3986 27.3623 43.5869 26.8993 43.7298 26.3972L46.3271 17.2686C46.5315 16.5499 47.2432 16.0617 48.0861 16.0617C48.6646 16.0617 49.1106 16.1849 49.5203 16.5762C49.8763 16.9161 50.0366 17.3269 49.993 17.7873C49.5372 22.5933 49.652 30.5332 47.0534 34.615C45.1737 37.5674 42.6343 38.5884 40.1136 40.9952C37.895 43.1137 37.0586 45.4643 36.7958 47.9599C36.6732 49.1252 35.7127 50.0079 34.5562 49.9999L25.9126 49.9407V42.5855C25.9127 39.4831 27.5078 37.9956 29.6736 36.0428ZM20.3264 36.0428C22.4922 37.9955 24.0873 39.4831 24.0873 42.5855V49.9407L15.4437 49.9999C14.2872 50.0079 13.3267 49.1252 13.204 47.9599C12.9413 45.4643 12.1048 43.1135 9.88627 40.9952C7.36566 38.5884 4.82617 37.5674 2.94656 34.615C0.347928 30.5335 0.46281 22.5934 0.00701445 17.7874C-0.0366316 17.327 0.123705 16.9162 0.479658 16.5763C0.889433 16.185 1.33539 16.0618 1.91387 16.0618C2.75683 16.0618 3.4685 16.55 3.67294 17.2687L6.27022 26.3974C6.41303 26.8994 6.60129 27.3624 6.841 27.7958C6.78125 27.8292 6.72609 27.8704 6.67694 27.9184C5.37807 29.1832 5.51082 31.1877 6.92242 32.3086L13.6517 37.6514C13.7321 37.715 13.824 37.762 13.9223 37.7896C14.0206 37.8172 14.1233 37.8249 14.2245 37.8123C14.3257 37.7997 14.4235 37.767 14.5123 37.7161C14.6011 37.6652 14.6791 37.5971 14.7418 37.5157C14.8046 37.4342 14.851 37.341 14.8782 37.2414C14.9054 37.1418 14.9131 37.0378 14.9006 36.9352C14.8882 36.8326 14.8559 36.7336 14.8057 36.6436C14.7554 36.5537 14.6882 36.4746 14.6078 36.411L7.87856 31.0682C7.56003 30.8153 7.35515 30.4588 7.33378 30.0732C7.25236 28.6052 9.82363 27.6351 11.3992 28.8917L20.3264 36.0428ZM15.6694 0.217238C17.6935 0.217238 19.3343 1.87986 19.3343 3.9309C19.3343 5.98194 17.6935 7.64457 15.6694 7.64457C13.6453 7.64457 12.0045 5.98194 12.0045 3.9309C12.0043 1.87986 13.6453 0.217238 15.6694 0.217238ZM35.1556 0C37.1797 0 38.8205 1.66262 38.8205 3.71366C38.8205 5.7647 37.1797 7.42733 35.1556 7.42733C33.1315 7.42733 31.4907 5.7647 31.4907 3.71366C31.4907 1.66274 33.1315 0 35.1556 0Z" fill="white"/>
</svg>
