<svg width="50" height="50" viewBox="0 0 50 50" fill="none" xmlns="http://www.w3.org/2000/svg">
<path d="M19.3456 39.7427H7.92028C7.29551 39.7427 6.78906 40.3167 6.78906 41.0247C6.78906 41.7328 7.29551 42.3068 7.92028 42.3068H19.3456C19.9704 42.3068 20.4768 41.7328 20.4768 41.0247C20.4768 40.3167 19.9704 39.7427 19.3456 39.7427ZM36.4271 39.7427H25.0017C24.377 39.7427 23.8705 40.3167 23.8705 41.0247C23.8705 41.7328 24.377 42.3068 25.0017 42.3068H36.4271C37.0517 42.3068 37.5583 41.7328 37.5583 41.0247C37.5583 40.3167 37.0517 39.7427 36.4271 39.7427ZM36.4271 7.69141H7.92028C7.29551 7.69141 6.78906 8.26538 6.78906 8.97346C6.78906 9.68153 7.29551 10.2555 7.92028 10.2555H36.4271C37.0517 10.2555 37.5583 9.68153 37.5583 8.97346C37.5583 8.26538 37.0517 7.69141 36.4271 7.69141ZM36.4271 14.1017H25.0017C24.377 14.1017 23.8705 14.6756 23.8705 15.3837C23.8705 16.0918 24.377 16.6658 25.0017 16.6658H36.4271C37.0517 16.6658 37.5583 16.0918 37.5583 15.3837C37.5583 14.6756 37.0517 14.1017 36.4271 14.1017ZM36.4271 20.5119H25.0017C24.377 20.5119 23.8705 21.0859 23.8705 21.794C23.8705 22.502 24.377 23.076 25.0017 23.076H36.4271C37.0517 23.076 37.5583 22.502 37.5583 21.794C37.5583 21.0859 37.0517 20.5119 36.4271 20.5119ZM36.4271 26.9222H25.0017C24.377 26.9222 23.8705 27.4961 23.8705 28.2042C23.8705 28.9123 24.377 29.4863 25.0017 29.4863H36.4271C37.0517 29.4863 37.5583 28.9123 37.5583 28.2042C37.5583 27.4961 37.0517 26.9222 36.4271 26.9222ZM36.4271 33.3324H25.0017C24.377 33.3324 23.8705 33.9064 23.8705 34.6145C23.8705 35.3226 24.377 35.8965 25.0017 35.8965H36.4271C37.0517 35.8965 37.5583 35.3226 37.5583 34.6145C37.5583 33.9064 37.0517 33.3324 36.4271 33.3324ZM19.3456 33.3324H7.92028C7.29551 33.3324 6.78906 33.9064 6.78906 34.6145C6.78906 35.3226 7.29551 35.8965 7.92028 35.8965H19.3456C19.9704 35.8965 20.4768 35.3226 20.4768 34.6145C20.4768 33.9064 19.9704 33.3324 19.3456 33.3324ZM19.3456 14.1017H7.92028C7.29551 14.1017 6.78906 14.6756 6.78906 15.3837V28.3324C6.78906 29.0405 7.29551 29.6145 7.92028 29.6145H19.3456C19.9704 29.6145 20.4768 29.0405 20.4768 28.3324V15.3837C20.4768 14.6756 19.9704 14.1017 19.3456 14.1017ZM18.2144 27.0504H9.05151V16.6658H18.2144V27.0504Z" fill="white"/>
<path d="M47.7376 6.41026H44.3439V2.5641C44.3439 1.15026 43.329 0 42.0814 0H2.26244C1.01493 0 0 1.15026 0 2.5641V43.5897C0 47.1244 2.53733 50 5.65611 50H44.3439C47.4627 50 50 47.1244 50 43.5897V8.97436C50 7.56051 48.9851 6.41026 47.7376 6.41026ZM47.7376 43.5897C47.7376 45.7105 46.2152 47.4359 44.3439 47.4359H5.65611C3.78484 47.4359 2.26244 45.7105 2.26244 43.5897V2.5641H42.0814V41.6667C42.0814 43.434 43.3501 44.8718 44.9095 44.8718C45.5342 44.8718 46.0407 44.2978 46.0407 43.5897C46.0407 42.8817 45.5342 42.3077 44.9095 42.3077C44.5976 42.3077 44.3439 42.0201 44.3439 41.6667V8.97436H47.7376V43.5897Z" fill="white"/>
</svg>
