<svg width="50" height="50" viewBox="0 0 50 50" fill="none" xmlns="http://www.w3.org/2000/svg">
<path d="M10.0877 40.3516H3.94737C2.90082 40.3505 1.89746 39.9342 1.15744 39.1942C0.417416 38.4542 0.0011609 37.4508 0 36.4043V8.33409C0 6.15777 1.77105 4.38672 3.94737 4.38672H10.0877C10.4367 4.38672 10.7714 4.52535 11.0181 4.7721C11.2649 5.01886 11.4035 5.35354 11.4035 5.70251C11.4035 6.05148 11.2649 6.38615 11.0181 6.63291C10.7714 6.87967 10.4367 7.0183 10.0877 7.0183H3.94737C3.22193 7.0183 2.63158 7.60865 2.63158 8.33409V36.4043C2.63158 37.1297 3.22193 37.7201 3.94737 37.7201H10.0877C10.4367 37.7201 10.7714 37.8587 11.0181 38.1054C11.2649 38.3522 11.4035 38.6869 11.4035 39.0358C11.4035 39.3848 11.2649 39.7195 11.0181 39.9662C10.7714 40.213 10.4367 40.3516 10.0877 40.3516ZM43.4211 30.3516C43.0721 30.3516 42.7374 30.213 42.4906 29.9662C42.2439 29.7195 42.1053 29.3848 42.1053 29.0358V8.33409C42.1053 7.60865 41.5149 7.0183 40.7895 7.0183H34.6491C34.3002 7.0183 33.9655 6.87967 33.7187 6.63291C33.472 6.38615 33.3333 6.05148 33.3333 5.70251C33.3333 5.35354 33.472 5.01886 33.7187 4.7721C33.9655 4.52535 34.3002 4.38672 34.6491 4.38672H40.7895C42.9658 4.38672 44.7368 6.15777 44.7368 8.33409V29.0358C44.7368 29.3848 44.5982 29.7195 44.3515 29.9662C44.1047 30.213 43.77 30.3516 43.4211 30.3516Z" fill="white"/>
<path d="M23.2471 44.7368H12.7208C11.6743 44.7357 10.6709 44.3194 9.93088 43.5794C9.19085 42.8394 8.7746 41.836 8.77344 40.7895V3.94737C8.77344 1.77105 10.5445 0 12.7208 0H32.0191C34.1954 0 35.9664 1.77105 35.9664 3.94737V28.2368C35.9664 28.5858 35.8278 28.9205 35.581 29.1672C35.3343 29.414 34.9996 29.5526 34.6506 29.5526C34.3017 29.5526 33.967 29.414 33.7202 29.1672C33.4735 28.9205 33.3348 28.5858 33.3348 28.2368V3.94737C33.3348 3.22193 32.7445 2.63158 32.0191 2.63158H12.7208C11.9954 2.63158 11.405 3.22193 11.405 3.94737V40.7895C11.405 41.5149 11.9954 42.1053 12.7208 42.1053H23.2471C23.5961 42.1053 23.9308 42.2439 24.1775 42.4906C24.4243 42.7374 24.5629 43.0721 24.5629 43.4211C24.5629 43.77 24.4243 44.1047 24.1775 44.3515C23.9308 44.5982 23.5961 44.7368 23.2471 44.7368Z" fill="white"/>
<path d="M28.5106 17.5431H16.2299C15.8809 17.5431 15.5462 17.4044 15.2994 17.1577C15.0527 16.9109 14.9141 16.5762 14.9141 16.2273V7.45534C14.9141 7.21098 14.9821 6.97145 15.1106 6.76359C15.239 6.55572 15.4229 6.38774 15.6414 6.27846C15.86 6.16918 16.1046 6.12292 16.348 6.14487C16.5914 6.16681 16.8238 6.25609 17.0193 6.40271L19.6149 8.35008L21.4386 6.52551C21.5608 6.40318 21.7058 6.30612 21.8655 6.23987C22.0251 6.17362 22.1963 6.13947 22.3691 6.13939C22.542 6.13931 22.7132 6.17329 22.8729 6.23939C23.0326 6.3055 23.1778 6.40242 23.3 6.52464L25.1246 8.3492L27.7211 6.40183C27.9166 6.25522 28.149 6.16593 28.3924 6.14399C28.6358 6.12204 28.8804 6.1683 29.099 6.27758C29.3176 6.38686 29.5014 6.55485 29.6298 6.76271C29.7583 6.97057 29.8263 7.2101 29.8263 7.45446V16.2273C29.8263 16.5762 29.6877 16.9109 29.441 17.1577C29.1942 17.4044 28.8595 17.5431 28.5106 17.5431ZM17.5456 14.9115H27.1948V10.0869L25.7913 11.1396C25.5379 11.3294 25.2245 11.4214 24.9087 11.3989C24.5929 11.3763 24.2958 11.2406 24.072 11.0167L22.3702 9.31674L20.6693 11.0185C20.4455 11.2424 20.1484 11.3781 19.8326 11.4006C19.5168 11.4232 19.2034 11.3311 18.95 11.1413L17.5456 10.0869V14.9115ZM22.3702 36.6992C21.0079 36.6992 19.7667 35.8974 19.2816 34.7027C19.2132 34.542 19.1774 34.3693 19.1764 34.1947C19.1754 34.0201 19.2092 33.847 19.2758 33.6855C19.3424 33.5241 19.4404 33.3775 19.5642 33.2543C19.688 33.1311 19.8351 33.0338 19.9969 32.9681C20.1587 32.9024 20.332 32.8695 20.5066 32.8714C20.6813 32.8734 20.8538 32.91 21.0141 32.9793C21.1744 33.0486 21.3193 33.1491 21.4404 33.2749C21.5615 33.4008 21.6563 33.5495 21.7193 33.7124C21.8035 33.9185 22.0772 34.0676 22.3702 34.0676C22.9053 34.0676 23.357 33.722 23.357 33.3132V33.2106C23.357 32.7922 22.4562 32.4922 22.1456 32.436C20.8904 32.2273 18.7518 31.2799 18.7518 29.0676V28.9667C18.7518 27.0992 20.3746 25.5799 22.3702 25.5799C23.7325 25.5799 24.9737 26.3817 25.4588 27.5764C25.5272 27.7371 25.563 27.9098 25.564 28.0844C25.565 28.259 25.5312 28.4321 25.4646 28.5936C25.3981 28.755 25.3 28.9016 25.1762 29.0248C25.0524 29.148 24.9053 29.2453 24.7435 29.311C24.5817 29.3767 24.4084 29.4096 24.2338 29.4077C24.0591 29.4057 23.8866 29.3691 23.7263 29.2998C23.566 29.2305 23.4211 29.13 23.3 29.0042C23.1789 28.8783 23.0841 28.7296 23.0211 28.5667C22.9369 28.3606 22.6632 28.2115 22.3702 28.2115C21.8351 28.2115 21.3834 28.5571 21.3834 28.9659V29.0685C21.3834 29.4869 22.2842 29.7869 22.5948 29.8431C23.85 30.0518 25.9886 30.9992 25.9886 33.2115V33.3124C25.9886 35.1799 24.3658 36.6992 22.3702 36.6992Z" fill="white"/>
<path d="M22.3705 28.2117C22.0215 28.2117 21.6868 28.073 21.4401 27.8263C21.1933 27.5795 21.0547 27.2448 21.0547 26.8959V24.9994C21.0547 24.6504 21.1933 24.3157 21.4401 24.069C21.6868 23.8222 22.0215 23.6836 22.3705 23.6836C22.7194 23.6836 23.0541 23.8222 23.3009 24.069C23.5476 24.3157 23.6863 24.6504 23.6863 24.9994V26.8959C23.6863 27.2448 23.5476 27.5795 23.3009 27.8263C23.0541 28.073 22.7194 28.2117 22.3705 28.2117ZM22.3705 38.5959C22.0215 38.5959 21.6868 38.4572 21.4401 38.2105C21.1933 37.9637 21.0547 37.6291 21.0547 37.2801V35.3836C21.0547 35.0346 21.1933 34.6999 21.4401 34.4532C21.6868 34.2064 22.0215 34.0678 22.3705 34.0678C22.7194 34.0678 23.0541 34.2064 23.3009 34.4532C23.5476 34.6999 23.6863 35.0346 23.6863 35.3836V37.2801C23.6863 37.6291 23.5476 37.9637 23.3009 38.2105C23.0541 38.4572 22.7194 38.5959 22.3705 38.5959ZM38.16 49.9994C31.6301 49.9994 26.3178 44.6871 26.3178 38.1573C26.3178 31.6275 31.6301 26.3152 38.16 26.3152C44.6898 26.3152 50.0021 31.6275 50.0021 38.1573C50.0021 44.6871 44.6898 49.9994 38.16 49.9994ZM38.16 28.9468C33.081 28.9468 28.9494 33.0783 28.9494 38.1573C28.9494 43.2362 33.081 47.3678 38.16 47.3678C43.2389 47.3678 47.3705 43.2362 47.3705 38.1573C47.3705 33.0783 43.2389 28.9468 38.16 28.9468Z" fill="white"/>
<path d="M36.625 42.9821C36.2762 42.982 35.9418 42.8435 35.6951 42.597L31.7478 38.6496C31.62 38.5288 31.5177 38.3836 31.447 38.2225C31.3763 38.0615 31.3386 37.8879 31.3361 37.7121C31.3336 37.5362 31.3664 37.3617 31.4325 37.1987C31.4986 37.0357 31.5968 36.8877 31.7211 36.7633C31.8454 36.6389 31.9934 36.5407 32.1564 36.4745C32.3193 36.4083 32.4939 36.3754 32.6697 36.3778C32.8456 36.3802 33.0192 36.4179 33.1802 36.4885C33.3413 36.5591 33.4865 36.6613 33.6074 36.7891L36.625 39.8058L42.7127 33.718C42.8336 33.5903 42.9788 33.4881 43.1399 33.4174C43.301 33.3468 43.4746 33.3092 43.6504 33.3068C43.8263 33.3044 44.0008 33.3372 44.1637 33.4034C44.3267 33.4697 44.4747 33.5679 44.599 33.6922C44.7233 33.8166 44.8215 33.9647 44.8876 34.1276C44.9537 34.2906 44.9865 34.4652 44.9841 34.641C44.9816 34.8169 44.9438 34.9905 44.8731 35.1515C44.8024 35.3125 44.7001 35.4577 44.5723 35.5786L37.5548 42.597C37.3083 42.8438 36.9738 42.9818 36.625 42.9821Z" fill="white"/>
</svg>
